<svg
            width="225"
            height="78"
            viewBox="0 0 268 78"
            fill="none"
            xmlns="http://www.w3.org/2000/svg"
          >
            <circle cx="60.4026" cy="38.9351" r="38.9351" fill="white" />
            <circle cx="208.031" cy="38.9351" r="38.9351" fill="white" />
            <ellipse
              cx="195.864"
              cy="53.9413"
              rx="12.1672"
              ry="12.5728"
              fill="black"
            />
            <circle cx="47.8299" cy="51.5078" r="12.5728" fill="black" />
            <mask
              id="mask0_53_149"
              style="mask-type: alpha"
              maskUnits="userSpaceOnUse"
              x="169"
              y="0"
              width="78"
              height="78"
            >
              <circle cx="208.031" cy="38.9351" r="38.9351" fill="white" />
            </mask>
            <g mask="url(#mask0_53_149)">
              <circle cx="208.031" cy="7.30029" r="38.9351" fill="#E97724" />
            </g>
            <mask
              id="mask1_53_149"
              style="mask-type: alpha"
              maskUnits="userSpaceOnUse"
              x="21"
              y="0"
              width="79"
              height="78"
            >
              <circle cx="60.4026" cy="38.9351" r="38.9351" fill="white" />
            </mask>
            <g mask="url(#mask1_53_149)">
              <circle cx="60.4026" cy="7.30029" r="38.9351" fill="#E97724" />
            </g>
            <path
              d="M234.523 36.1334C235.464 39.6962 239.19 47.0041 246.569 47.7337C253.948 48.4634 258.078 46.5627 259.221 45.5212"
              stroke="black"
              stroke-width="3"
              stroke-linecap="round"
            />
            <path
              d="M240.911 29.0791C241.922 32.6226 245.792 39.8558 253.183 40.4401C260.575 41.0245 264.667 39.0429 265.79 37.9791"
              stroke="black"
              stroke-width="3"
              stroke-linecap="round"
            />
            <path
              d="M225.877 43.1266C226.343 46.7819 229.08 54.5152 236.299 56.2054C243.518 57.8957 247.862 56.5527 249.132 55.67"
              stroke="black"
              stroke-width="3"
              stroke-linecap="round"
            />
            <path
              d="M212.898 47.0465C213.211 50.7181 215.624 58.5587 222.766 60.5485C229.909 62.5383 234.305 61.3776 235.61 60.5485"
              stroke="black"
              stroke-width="3"
              stroke-linecap="round"
            />
            <path
              d="M33.4775 35.7406C32.5365 39.3033 28.8097 46.6112 21.4312 47.3409C14.0526 48.0705 9.92205 46.1699 8.77908 45.1284"
              stroke="black"
              stroke-width="3"
              stroke-linecap="round"
            />
            <path
              d="M27.0889 28.6862C26.0779 32.2297 22.2081 39.4629 14.8166 40.0472C7.42512 40.6315 3.33275 38.65 2.21049 37.5862"
              stroke="black"
              stroke-width="3"
              stroke-linecap="round"
            />
            <path
              d="M42.1234 42.7338C41.6573 46.3891 38.9204 54.1224 31.7011 55.8126C24.4817 57.5029 20.1377 56.1599 18.8681 55.2771"
              stroke="black"
              stroke-width="3"
              stroke-linecap="round"
            />
            <path
              d="M55.1018 46.6536C54.7885 50.3252 52.3764 58.1658 45.2338 60.1556C38.0912 62.1453 33.695 60.9846 32.3897 60.1556"
              stroke="black"
              stroke-width="3"
              stroke-linecap="round"
            />
          </svg>