<svg xmlns="http://www.w3.org/2000/svg" width="488" height="143" fill="none" xmlns:v="https://vecta.io/nano"><g fill="#fff"><circle cx="109.152" cy="71.435" r="71.435"/><circle cx="380.01" cy="71.435" r="71.435"/></g><g fill="#000"><ellipse cx="357.687" cy="98.968" rx="22.324" ry="23.068"/><circle cx="86.085" cy="94.503" r="23.068"/></g><mask id="A" maskUnits="userSpaceOnUse" x="308" y="0" width="144" height="143" mask-type="alpha"><circle cx="380.01" cy="71.435" r="71.435" fill="#fff"/></mask><g mask="url(#A)"><circle cx="380.01" cy="13.394" r="71.435" fill="#e97724"/></g><mask id="B" maskUnits="userSpaceOnUse" x="37" y="0" width="144" height="143" mask-type="alpha"><circle cx="109.152" cy="71.435" r="71.435" fill="#fff"/></mask><g mask="url(#B)"><circle cx="109.152" cy="13.394" r="71.435" fill="#e97724"/></g><path d="M428.614 66.295c1.727 6.537 8.564 19.945 22.102 21.283s21.116-2.148 23.213-4.059m-33.593-30.167c1.855 6.501 8.955 19.772 22.516 20.844s21.07-2.563 23.129-4.515m-73.23 9.444c.856 6.707 5.877 20.895 19.123 23.997s21.215.637 23.544-.983M388.94 86.318c.575 6.736 5 21.121 18.105 24.773s21.171 1.521 23.565 0M59.752 65.574c-1.727 6.537-8.564 19.945-22.102 21.283s-21.116-2.148-23.213-4.059m33.594-30.167c-1.855 6.501-8.955 19.772-22.516 20.844S4.445 70.912 2.386 68.96m73.23 9.445c-.855 6.706-5.877 20.895-19.122 23.996s-21.215.637-23.545-.983m66.478-15.822c-.575 6.736-5 21.122-18.105 24.773s-21.171 1.521-23.565 0" stroke="#000" stroke-width="3" stroke-linecap="round"/></svg>