<svg xmlns="http://www.w3.org/2000/svg" width="96" height="153" fill="none" xmlns:v="https://vecta.io/nano"><g fill="#ffadff"><rect width="51" height="96" rx="25.5" transform="matrix(0 -1 -1 0 96 153)"/><rect width="51" height="96" rx="25.5" transform="matrix(0 -1 -1 0 96 102)"/><rect width="51" height="96" rx="25.5" transform="matrix(0 -1 -1 0 96 51)"/></g><path d="M29.5 144c4.694 0 8.5-3.806 8.5-8.5v-17c0-4.694-3.806-8.5-8.5-8.5H21c-9.389 0-17 7.611-17 17s7.611 17 17 17h8.5zm0-51a8.5 8.5 0 0 0 8.5-8.5v-17a8.5 8.5 0 0 0-8.5-8.5H21c-9.389 0-17 7.611-17 17s7.611 17 17 17h8.5zm0-51a8.5 8.5 0 0 0 8.5-8.5v-17A8.5 8.5 0 0 0 29.5 8H21C11.611 8 4 15.611 4 25s7.611 17 17 17h8.5z" fill="#4558ff"/></svg>