<svg xmlns="http://www.w3.org/2000/svg" width="96" height="153" fill="none" xmlns:v="https://vecta.io/nano"><g fill="#ffadff"><rect y="153" width="51" height="96" rx="25.5" transform="rotate(270 0 153)"/><rect y="102" width="51" height="96" rx="25.5" transform="rotate(270 0 102)"/><rect y="51" width="51" height="96" rx="25.5" transform="rotate(270 0 51)"/></g><path d="M66.5 144c-4.694 0-8.5-3.806-8.5-8.5v-17c0-4.694 3.806-8.5 8.5-8.5H75c9.389 0 17 7.611 17 17s-7.611 17-17 17h-8.5zm0-51a8.5 8.5 0 0 1-8.5-8.5v-17a8.5 8.5 0 0 1 8.5-8.5H75c9.389 0 17 7.611 17 17s-7.611 17-17 17h-8.5zm0-51a8.5 8.5 0 0 1-8.5-8.5v-17A8.5 8.5 0 0 1 66.5 8H75c9.389 0 17 7.611 17 17s-7.611 17-17 17h-8.5z" fill="#4558ff"/></svg>