<svg xmlns="http://www.w3.org/2000/svg" width="164" height="86" fill="none" xmlns:v="https://vecta.io/nano"><path fill-rule="evenodd" d="M80 48c14.359 0 26-7.611 26-17V18h-9.245C92.23 15.504 86.383 14 80 14s-12.23 1.504-16.755 4H54v13c0 9.389 11.641 17 26 17z" fill="#a8a8a8"/><ellipse cx="80" cy="17" rx="26" ry="17" fill="#fff"/><path fill-rule="evenodd" d="M26 86c14.359 0 26-7.611 26-17V56h-9.245C38.23 53.504 32.383 52 26 52s-12.23 1.504-16.755 4H0v13c0 9.389 11.641 17 26 17z" fill="#a8a8a8"/><ellipse cx="26" cy="55" rx="26" ry="17" fill="#fff"/><path fill-rule="evenodd" d="M82 86c14.359 0 26-7.611 26-17V56h-9.245C94.23 53.504 88.384 52 82 52s-12.23 1.504-16.755 4H56v13c0 9.389 11.641 17 26 17z" fill="#a8a8a8"/><ellipse cx="82" cy="55" rx="26" ry="17" fill="#fff"/><path fill-rule="evenodd" d="M138 86c14.359 0 26-7.611 26-17V56h-9.245c-4.525-2.496-10.371-4-16.755-4s-12.23 1.504-16.755 4H112v13c0 9.389 11.641 17 26 17z" fill="#a8a8a8"/><ellipse cx="138" cy="55" rx="26" ry="17" fill="#fff"/><path d="M71 23.153l.694-1.45 4.35.4L81.909 9.85l-4.35-.4.694-1.45 10.516.966-.694 1.45-4.326-.397-5.865 12.253 4.326.398-.694 1.45L71 23.153zM19.831 62.927c-1.386-.127-2.427-.577-3.122-1.349s-.98-1.793-.855-3.062l1.963-.452c-.15 2.05.771 3.167 2.763 3.35 1.195.11 2.344-.206 3.448-.949s1.98-1.792 2.63-3.148l4.508-9.417 1.84.169-4.518 9.438c-.58 1.212-1.324 2.244-2.23 3.095-.89.852-1.891 1.483-3.002 1.894-1.088.397-2.23.541-3.425.431zm54.126-.964l7.254-15.153 1.84.169-3.42 7.144 10.589-6.485 2.342.215-11.236 6.742 4.174 8.429-2.51-.231-3.743-7.87-3.451 7.209-1.84-.169zm56.119-.989l7.254-15.153 1.84.169-6.559 13.703 8.604.791-.695 1.45-10.444-.96z" fill="#000"/></svg>