<svg width="365" height="532" viewBox="0 0 365 532" fill="none" xmlns="http://www.w3.org/2000/svg">
<rect width="365" height="532" fill="white"/>
<path d="M193.026 177.942V207.175H97.9742V267.884H68.6484V117.238H125.102V146.471H97.9742V177.942H193.026Z" fill="#D2FA6D" stroke="black" stroke-width="3" stroke-miterlimit="10"/>
<path d="M154.433 85.7673V117.238H227.691V146.471H154.433V177.942H125.102V56.5284H257.944V85.7673H154.433Z" fill="#FFAFFF" stroke="black" stroke-width="3" stroke-miterlimit="10"/>
<path d="M68.6417 177.942H68.6357V207.175H68.6417V177.942Z" stroke="black" stroke-width="3" stroke-miterlimit="10"/>
<path d="M312.592 238.651V267.884H125.102V207.175H154.427V238.651H312.592Z" fill="#3858FF" stroke="black" stroke-width="3" stroke-miterlimit="10"/>
<path d="M295.651 234.004C305.01 234.004 312.598 226.442 312.598 217.114C312.598 207.786 305.01 200.225 295.651 200.225C286.291 200.225 278.704 207.786 278.704 217.114C278.704 226.442 286.291 234.004 295.651 234.004Z" fill="#FF7811" stroke="black" stroke-width="3" stroke-miterlimit="10"/>
<path d="M88.6875 352.062V355.188H76.1875V361.438H85.5625V364.562H76.1875V373.938H73.0625V352.062H88.6875ZM91.8125 356.75H94.9375V369.25H96.5V370.812H102.75V369.25H104.312V356.75H107.438V370.812H105.875V372.375H104.312V373.938H94.9375V372.375H93.375V370.812H91.8125V356.75ZM121.5 370.812H123.062V373.938H119.938V372.375H118.375V370.812H116.812V359.875H113.688V356.75H116.812V352.062H119.938V356.75H123.062V359.875H119.938V369.25H121.5V370.812ZM129.312 356.75H132.438V369.25H134V370.812H140.25V369.25H141.812V356.75H144.938V370.812H143.375V372.375H141.812V373.938H132.438V372.375H130.875V370.812H129.312V356.75ZM151.188 364.562V373.938H148.062V356.75H151.188V359.875H152.75V358.312H154.312V356.75H160.562V358.312H162.125V359.875H163.688V363H160.562V361.438H159V359.875H155.875V361.438H154.312V363H152.75V364.562H151.188ZM169.938 361.438V363H179.312V361.438H177.75V359.875H171.5V361.438H169.938ZM182.438 369.25V370.812H180.875V372.375H179.312V373.938H169.938V372.375H168.375V370.812H166.812V359.875H168.375V358.312H169.938V356.75H179.312V358.312H180.875V359.875H182.438V364.562H180.875V366.125H169.938V369.25H171.5V370.812H177.75V369.25H182.438ZM193.375 370.812V373.938H190.25V370.812H193.375ZM88.6875 400.062V403.188H76.1875V409.438H85.5625V412.562H76.1875V418.812H88.6875V421.938H73.0625V400.062H88.6875ZM94.9375 420.375V421.938H91.8125V418.812H93.375V417.25H94.9375V415.688H96.5V414.125H98.0625V412.562H96.5V411H94.9375V409.438H93.375V407.875H91.8125V404.75H94.9375V406.312H96.5V407.875H98.0625V409.438H101.188V407.875H102.75V406.312H104.312V404.75H107.438V407.875H105.875V409.438H104.312V411H102.75V412.562H101.188V414.125H102.75V415.688H104.312V417.25H105.875V418.812H107.438V421.938H104.312V420.375H102.75V418.812H101.188V417.25H98.0625V418.812H96.5V420.375H94.9375ZM123.062 407.875H121.5V406.312H116.812V407.875H115.25V412.562H116.812V414.125H121.5V412.562H123.062V407.875ZM113.688 415.688V421.938H110.562V403.188H113.688V404.75H115.25V403.188H123.062V404.75H124.625V406.312H126.188V414.125H124.625V415.688H123.062V417.25H115.25V415.688H113.688ZM132.438 409.438V411H141.812V409.438H140.25V407.875H134V409.438H132.438ZM144.938 417.25V418.812H143.375V420.375H141.812V421.938H132.438V420.375H130.875V418.812H129.312V407.875H130.875V406.312H132.438V404.75H141.812V406.312H143.375V407.875H144.938V412.562H143.375V414.125H132.438V417.25H134V418.812H140.25V417.25H144.938ZM151.188 412.562V421.938H148.062V404.75H151.188V407.875H152.75V406.312H154.312V404.75H160.562V406.312H162.125V407.875H163.688V411H160.562V409.438H159V407.875H155.875V409.438H154.312V411H152.75V412.562H151.188ZM176.188 401.625V404.75H173.062V401.625H176.188ZM177.75 418.812H179.312V421.938H176.188V420.375H174.625V418.812H173.062V411H169.938V407.875H176.188V417.25H177.75V418.812ZM188.688 409.438V411H198.062V409.438H196.5V407.875H190.25V409.438H188.688ZM201.188 417.25V418.812H199.625V420.375H198.062V421.938H188.688V420.375H187.125V418.812H185.562V407.875H187.125V406.312H188.688V404.75H198.062V406.312H199.625V407.875H201.188V412.562H199.625V414.125H188.688V417.25H190.25V418.812H196.5V417.25H201.188ZM207.438 409.438V421.938H204.312V404.75H207.438V406.312H209V404.75H216.812V406.312H218.375V407.875H219.938V421.938H216.812V409.438H215.25V407.875H209V409.438H207.438ZM235.562 417.25V415.688H238.688V418.812H237.125V420.375H235.562V421.938H226.188V420.375H224.625V418.812H223.062V407.875H224.625V406.312H226.188V404.75H235.562V406.312H237.125V407.875H238.688V411H235.562V409.438H234V407.875H227.75V409.438H226.188V417.25H227.75V418.812H234V417.25H235.562ZM244.938 409.438V411H254.312V409.438H252.75V407.875H246.5V409.438H244.938ZM257.438 417.25V418.812H255.875V420.375H254.312V421.938H244.938V420.375H243.375V418.812H241.812V407.875H243.375V406.312H244.938V404.75H254.312V406.312H255.875V407.875H257.438V412.562H255.875V414.125H244.938V417.25H246.5V418.812H252.75V417.25H257.438ZM268.375 418.812V421.938H265.25V418.812H268.375ZM73.0625 469.938V448.062H76.1875V466.812H88.6875V469.938H73.0625ZM96.5 466.812H102.75V465.25H104.312V462.125H102.75V460.562H96.5V462.125H94.9375V465.25H96.5V466.812ZM94.9375 469.938V468.375H93.375V466.812H91.8125V460.562H93.375V459H94.9375V457.438H102.75V459H104.312V455.875H102.75V454.312H94.9375V451.188H104.312V452.75H105.875V454.312H107.438V469.938H104.312V468.375H102.75V469.938H94.9375ZM118.375 466.812H119.938V465.25H121.5V463.688H123.062V459H121.5V457.438H119.938V455.875H118.375V457.438H116.812V459H115.25V463.688H116.812V465.25H118.375V466.812ZM113.688 466.812V469.938H110.562V448.062H113.688V455.875H115.25V454.312H116.812V452.75H121.5V454.312H123.062V455.875H124.625V457.438H126.188V465.25H124.625V466.812H123.062V468.375H121.5V469.938H116.812V468.375H115.25V466.812H113.688ZM137.125 466.812V469.938H134V466.812H137.125Z" fill="black"/>
</svg>
