<svg width="32" height="32" viewBox="0 0 48 48"  xmlns="http://www.w3.org/2000/svg">
          <g clip-path="url(#clip0_83_9)">
          <path d="M2.09815e-06 24C1.54168e-06 30.3652 2.52857 36.4697 7.02943 40.9706C11.5303 45.4714 17.6348 48 24 48C30.3652 48 36.4697 45.4714 40.9706 40.9706C45.4714 36.4697 48 30.3652 48 24C48 17.6348 45.4714 11.5303 40.9706 7.02943C36.4697 2.52856 30.3652 -1.54168e-06 24 -2.09815e-06C17.6348 -2.65461e-06 11.5303 2.52856 7.02944 7.02943C2.52857 11.5303 2.65461e-06 17.6348 2.09815e-06 24ZM22.5 13.5C22.5 13.1022 22.658 12.7206 22.9393 12.4393C23.2206 12.158 23.6022 12 24 12C24.3978 12 24.7794 12.158 25.0607 12.4393C25.342 12.7206 25.5 13.1022 25.5 13.5L25.5 30.879L31.938 24.438C32.2197 24.1563 32.6017 23.9981 33 23.9981C33.3983 23.9981 33.7803 24.1563 34.062 24.438C34.3437 24.7197 34.5019 25.1017 34.5019 25.5C34.5019 25.8983 34.3437 26.2803 34.062 26.562L25.062 35.562C24.9227 35.7017 24.7571 35.8125 24.5749 35.8881C24.3927 35.9638 24.1973 36.0027 24 36.0027C23.8027 36.0027 23.6073 35.9638 23.4251 35.8881C23.2429 35.8125 23.0773 35.7017 22.938 35.562L13.938 26.562C13.6563 26.2803 13.4981 25.8983 13.4981 25.5C13.4981 25.1017 13.6563 24.7197 13.938 24.438C14.2197 24.1563 14.6017 23.9981 15 23.9981C15.3983 23.9981 15.7803 24.1563 16.062 24.438L22.5 30.879L22.5 13.5Z" fill="#FFADFF"/>
          </g>
          <defs>
          <clipPath id="clip0_83_9">
          <rect width="48" height="48" fill="white" transform="translate(48 48) rotate(-180)"/>
          </clipPath>
          </defs>
          </svg>