<svg width="294" height="294" viewBox="0 0 294 294" fill="none" xmlns="http://www.w3.org/2000/svg">
<path d="M109.125 0.25C138 0.25 165.693 11.7207 186.111 32.1387C206.529 52.5568 218 80.2496 218 109.125C218 136.092 208.117 160.882 191.87 179.977L196.393 184.5H209.625L293.375 268.25L268.25 293.375L184.5 209.625V196.393L179.977 191.87C160.222 208.733 135.099 217.998 109.125 218C80.2496 218 52.5568 206.529 32.1387 186.111C11.7207 165.693 0.25 138 0.25 109.125C0.25 80.2496 11.7207 52.5568 32.1387 32.1387C52.5568 11.7207 80.2496 0.25 109.125 0.25ZM109.125 33.75C67.25 33.75 33.75 67.25 33.75 109.125C33.75 151 67.25 184.5 109.125 184.5C151 184.5 184.5 151 184.5 109.125C184.5 67.25 151 33.75 109.125 33.75Z" fill="#E97724"/>
</svg>
